<?xml version="1.0" encoding="UTF-8" ?>
<svg version="1.1" width="125" height="125" xmlns="http://www.w3.org/2000/svg" shape-rendering="crispEdges">
<rect x="10" y="0" width="1" height="1" fill="#FF5E17" opacity="0.341176" />
<rect x="11" y="0" width="1" height="1" fill="#FF4611" opacity="0.752941" />
<rect x="12" y="0" width="1" height="1" fill="#FF2A0A" opacity="0.937255" />
<rect x="13" y="0" width="1" height="1" fill="#FF0C03" opacity="0.996078" />
<rect x="14" y="0" width="97" height="4" fill="#FF0000" />
<rect x="111" y="0" width="1" height="1" fill="#FF0C03" opacity="0.996078" />
<rect x="112" y="0" width="1" height="1" fill="#FF2A0A" opacity="0.937255" />
<rect x="113" y="0" width="1" height="1" fill="#FF4611" opacity="0.752941" />
<rect x="114" y="0" width="1" height="1" fill="#FF5E17" opacity="0.341176" />
<rect x="8" y="1" width="1" height="1" fill="#FF5114" opacity="0.611765" />
<rect x="9" y="1" width="1" height="1" fill="#FF1706" opacity="0.984314" />
<rect x="10" y="1" width="4" height="3" fill="#FF0000" />
<rect x="111" y="1" width="4" height="3" fill="#FF0000" />
<rect x="115" y="1" width="1" height="1" fill="#FF1706" opacity="0.984314" />
<rect x="116" y="1" width="1" height="1" fill="#FF5114" opacity="0.611765" />
<rect x="6" y="2" width="1" height="1" fill="#FF5E17" opacity="0.341176" />
<rect x="7" y="2" width="1" height="1" fill="#FF2108" opacity="0.964706" />
<rect x="8" y="2" width="2" height="3" fill="#FF0000" />
<rect x="115" y="2" width="2" height="3" fill="#FF0000" />
<rect x="117" y="2" width="1" height="1" fill="#FF2108" opacity="0.964706" />
<rect x="118" y="2" width="1" height="1" fill="#FF5E17" opacity="0.341176" />
<rect x="5" y="3" width="1" height="1" fill="#FF5114" opacity="0.611765" />
<rect x="6" y="3" width="2" height="3" fill="#FF0000" />
<rect x="117" y="3" width="2" height="3" fill="#FF0000" />
<rect x="119" y="3" width="1" height="1" fill="#FF5114" opacity="0.611765" />
<rect x="4" y="4" width="1" height="1" fill="#FF5114" opacity="0.611765" />
<rect x="5" y="4" width="1" height="5" fill="#FF0000" />
<rect x="10" y="4" width="1" height="1" fill="#FF0501" />
<rect x="11" y="4" width="1" height="1" fill="#FF5916" />
<rect x="12" y="4" width="1" height="1" fill="#FF8A22" />
<rect x="13" y="4" width="1" height="1" fill="#FFC430" />
<rect x="14" y="4" width="97" height="9" fill="#FFD233" />
<rect x="111" y="4" width="1" height="1" fill="#FFC430" />
<rect x="112" y="4" width="1" height="1" fill="#FF8A22" />
<rect x="113" y="4" width="1" height="1" fill="#FF5916" />
<rect x="114" y="4" width="1" height="1" fill="#FF0501" />
<rect x="119" y="4" width="1" height="5" fill="#FF0000" />
<rect x="120" y="4" width="1" height="1" fill="#FF5114" opacity="0.611765" />
<rect x="3" y="5" width="1" height="1" fill="#FF5114" opacity="0.611765" />
<rect x="4" y="5" width="1" height="5" fill="#FF0000" />
<rect x="8" y="5" width="1" height="1" fill="#FF0000" />
<rect x="9" y="5" width="1" height="1" fill="#FF5A16" />
<rect x="10" y="5" width="1" height="1" fill="#FFB22B" />
<rect x="11" y="5" width="3" height="80" fill="#FFD233" />
<rect x="111" y="5" width="3" height="70" fill="#FFD233" />
<rect x="114" y="5" width="1" height="1" fill="#FFB22B" />
<rect x="115" y="5" width="1" height="1" fill="#FF5A16" />
<rect x="116" y="5" width="1" height="1" fill="#FF0000" />
<rect x="120" y="5" width="1" height="5" fill="#FF0000" />
<rect x="121" y="5" width="1" height="1" fill="#FF5114" opacity="0.611765" />
<rect x="2" y="6" width="1" height="1" fill="#FF5E17" opacity="0.341176" />
<rect x="3" y="6" width="1" height="113" fill="#FF0000" />
<rect x="6" y="6" width="1" height="1" fill="#FF0000" />
<rect x="7" y="6" width="1" height="1" fill="#FF0501" />
<rect x="8" y="6" width="1" height="1" fill="#FF811F" />
<rect x="9" y="6" width="2" height="82" fill="#FFD233" />
<rect x="114" y="6" width="2" height="69" fill="#FFD233" />
<rect x="116" y="6" width="1" height="1" fill="#FF811F" />
<rect x="117" y="6" width="1" height="1" fill="#FF0501" />
<rect x="118" y="6" width="1" height="1" fill="#FF0000" />
<rect x="121" y="6" width="1" height="113" fill="#FF0000" />
<rect x="122" y="6" width="1" height="1" fill="#FF5E17" opacity="0.341176" />
<rect x="2" y="7" width="1" height="1" fill="#FF2108" opacity="0.964706" />
<rect x="6" y="7" width="1" height="1" fill="#FF0501" />
<rect x="7" y="7" width="1" height="1" fill="#FF811F" />
<rect x="8" y="7" width="1" height="83" fill="#FFD233" />
<rect x="116" y="7" width="1" height="78" fill="#FFD233" />
<rect x="117" y="7" width="1" height="1" fill="#FF811F" />
<rect x="118" y="7" width="1" height="1" fill="#FF0501" />
<rect x="122" y="7" width="1" height="1" fill="#FF2108" opacity="0.964706" />
<rect x="1" y="8" width="1" height="1" fill="#FF5114" opacity="0.611765" />
<rect x="2" y="8" width="1" height="109" fill="#FF0000" />
<rect x="6" y="8" width="1" height="1" fill="#FF811F" />
<rect x="7" y="8" width="1" height="82" fill="#FFD233" />
<rect x="117" y="8" width="1" height="77" fill="#FFD233" />
<rect x="118" y="8" width="1" height="1" fill="#FF811F" />
<rect x="122" y="8" width="1" height="109" fill="#FF0000" />
<rect x="123" y="8" width="1" height="1" fill="#FF5114" opacity="0.611765" />
<rect x="1" y="9" width="1" height="1" fill="#FF1706" opacity="0.984314" />
<rect x="5" y="9" width="1" height="1" fill="#FF5A16" />
<rect x="6" y="9" width="1" height="81" fill="#FFD233" />
<rect x="118" y="9" width="1" height="79" fill="#FFD233" />
<rect x="119" y="9" width="1" height="1" fill="#FF5A16" />
<rect x="123" y="9" width="1" height="1" fill="#FF1706" opacity="0.984314" />
<rect x="0" y="10" width="1" height="1" fill="#FF5E17" opacity="0.341176" />
<rect x="1" y="10" width="1" height="105" fill="#FF0000" />
<rect x="4" y="10" width="1" height="1" fill="#FF0501" />
<rect x="5" y="10" width="1" height="1" fill="#FFB22B" />
<rect x="119" y="10" width="1" height="1" fill="#FFB22B" />
<rect x="120" y="10" width="1" height="1" fill="#FF0501" />
<rect x="123" y="10" width="1" height="105" fill="#FF0000" />
<rect x="124" y="10" width="1" height="1" fill="#FF5E17" opacity="0.341176" />
<rect x="0" y="11" width="1" height="1" fill="#FF4611" opacity="0.752941" />
<rect x="4" y="11" width="1" height="1" fill="#FF5916" />
<rect x="5" y="11" width="1" height="79" fill="#FFD233" />
<rect x="119" y="11" width="1" height="77" fill="#FFD233" />
<rect x="120" y="11" width="1" height="1" fill="#FF5916" />
<rect x="124" y="11" width="1" height="1" fill="#FF4611" opacity="0.752941" />
<rect x="0" y="12" width="1" height="1" fill="#FF2A0A" opacity="0.937255" />
<rect x="4" y="12" width="1" height="1" fill="#FF8A22" />
<rect x="120" y="12" width="1" height="1" fill="#FF8A22" />
<rect x="124" y="12" width="1" height="1" fill="#FF2A0A" opacity="0.937255" />
<rect x="0" y="13" width="1" height="1" fill="#FF0C03" opacity="0.996078" />
<rect x="4" y="13" width="1" height="1" fill="#FFC430" />
<rect x="14" y="13" width="16" height="5" fill="#FFD233" />
<rect x="30" y="13" width="41" height="5" fill="#FF0000" />
<rect x="71" y="13" width="40" height="5" fill="#FFD233" />
<rect x="120" y="13" width="1" height="1" fill="#FFC430" />
<rect x="124" y="13" width="1" height="1" fill="#FF0C03" opacity="0.996078" />
<rect x="0" y="14" width="1" height="97" fill="#FF0000" />
<rect x="4" y="14" width="1" height="76" fill="#FFD233" />
<rect x="120" y="14" width="1" height="74" fill="#FFD233" />
<rect x="124" y="14" width="1" height="97" fill="#FF0000" />
<rect x="14" y="18" width="11" height="57" fill="#FFD233" />
<rect x="25" y="18" width="5" height="16" fill="#FF0000" />
<rect x="30" y="18" width="41" height="5" fill="#0E0D0E" />
<rect x="71" y="18" width="5" height="5" fill="#FF0000" />
<rect x="76" y="18" width="35" height="5" fill="#FFD233" />
<rect x="30" y="23" width="5" height="11" fill="#0E0D0E" />
<rect x="35" y="23" width="31" height="5" fill="#D2202C" />
<rect x="66" y="23" width="10" height="5" fill="#0E0D0E" />
<rect x="76" y="23" width="6" height="11" fill="#FF0000" />
<rect x="82" y="23" width="29" height="5" fill="#FFD233" />
<rect x="35" y="28" width="16" height="6" fill="#0E0D0E" />
<rect x="51" y="28" width="20" height="6" fill="#D2202C" />
<rect x="71" y="28" width="5" height="11" fill="#0E0D0E" />
<rect x="82" y="28" width="10" height="6" fill="#FF0000" />
<rect x="92" y="28" width="19" height="6" fill="#FFD233" />
<rect x="25" y="34" width="5" height="47" fill="#FFD233" />
<rect x="30" y="34" width="11" height="5" fill="#FF0000" />
<rect x="41" y="34" width="15" height="5" fill="#0E0D0E" />
<rect x="56" y="34" width="10" height="5" fill="#D2202C" />
<rect x="66" y="34" width="5" height="5" fill="#0E0D0E" />
<rect x="76" y="34" width="16" height="5" fill="#0E0D0E" />
<rect x="92" y="34" width="5" height="10" fill="#FF0000" />
<rect x="97" y="34" width="14" height="10" fill="#FFD233" />
<rect x="30" y="39" width="5" height="36" fill="#FFD233" />
<rect x="35" y="39" width="6" height="36" fill="#FF0000" />
<rect x="41" y="39" width="5" height="42" fill="#0E0D0E" />
<rect x="46" y="39" width="15" height="5" fill="#EADFD1" />
<rect x="61" y="39" width="26" height="5" fill="#7C776F" />
<rect x="87" y="39" width="5" height="10" fill="#0E0D0E" />
<rect x="46" y="44" width="5" height="5" fill="#EADFD1" />
<rect x="51" y="44" width="36" height="5" fill="#0E0D0E" />
<rect x="92" y="44" width="5" height="37" fill="#0E0D0E" />
<rect x="97" y="44" width="6" height="37" fill="#FF0000" />
<rect x="103" y="44" width="8" height="37" fill="#FFD233" />
<rect x="46" y="49" width="5" height="26" fill="#7C776F" />
<rect x="51" y="49" width="5" height="32" fill="#0E0D0E" />
<rect x="56" y="49" width="15" height="5" fill="#EADFD1" />
<rect x="71" y="49" width="21" height="5" fill="#B3AAA1" />
<rect x="56" y="54" width="5" height="6" fill="#EADFD1" />
<rect x="61" y="54" width="5" height="16" fill="#0E0D0E" />
<rect x="66" y="54" width="5" height="21" fill="#B3AAA1" />
<rect x="71" y="54" width="5" height="16" fill="#0E0D0E" />
<rect x="76" y="54" width="6" height="21" fill="#B3AAA1" />
<rect x="82" y="54" width="5" height="16" fill="#0E0D0E" />
<rect x="87" y="54" width="5" height="21" fill="#B3AAA1" />
<rect x="56" y="60" width="5" height="15" fill="#B3AAA1" />
<rect x="61" y="70" width="5" height="5" fill="#B3AAA1" />
<rect x="71" y="70" width="5" height="5" fill="#B3AAA1" />
<rect x="82" y="70" width="5" height="5" fill="#B3AAA1" />
<rect x="14" y="75" width="3" height="10" fill="#F99C0B" />
<rect x="17" y="75" width="8" height="6" fill="#FFD233" />
<rect x="30" y="75" width="5" height="36" fill="#FF0000" />
<rect x="35" y="75" width="6" height="36" fill="#0E0D0E" />
<rect x="46" y="75" width="5" height="6" fill="#0E0D0E" />
<rect x="56" y="75" width="36" height="6" fill="#0E0D0E" />
<rect x="111" y="75" width="2" height="6" fill="#FFD233" />
<rect x="113" y="75" width="3" height="13" fill="#F99C0B" />
<rect x="17" y="81" width="3" height="4" fill="#F99C0B" />
<rect x="20" y="81" width="7" height="2" fill="#FFD233" />
<rect x="27" y="81" width="3" height="7" fill="#F99C0B" />
<rect x="41" y="81" width="15" height="20" fill="#0A7030" />
<rect x="56" y="81" width="31" height="4" fill="#EBA724" />
<rect x="87" y="81" width="5" height="25" fill="#0E0D0E" />
<rect x="92" y="81" width="5" height="25" fill="#FF0000" />
<rect x="97" y="81" width="6" height="4" fill="#F99C0B" />
<rect x="103" y="81" width="7" height="2" fill="#FFD233" />
<rect x="110" y="81" width="3" height="7" fill="#F99C0B" />
<rect x="20" y="83" width="7" height="5" fill="#F99C0B" />
<rect x="103" y="83" width="7" height="5" fill="#F99C0B" />
<rect x="11" y="85" width="1" height="3" fill="#FFD233" />
<rect x="12" y="85" width="2" height="8" fill="#F99C0B" />
<rect x="14" y="85" width="6" height="5" fill="#FFD233" />
<rect x="56" y="85" width="5" height="21" fill="#EBA724" />
<rect x="61" y="85" width="26" height="5" fill="#0E0D0E" />
<rect x="97" y="85" width="6" height="5" fill="#FFD233" />
<rect x="116" y="85" width="2" height="5" fill="#F99C0B" />
<rect x="9" y="88" width="3" height="5" fill="#F99C0B" />
<rect x="20" y="88" width="5" height="2" fill="#F99C0B" />
<rect x="25" y="88" width="5" height="18" fill="#FFD233" />
<rect x="103" y="88" width="5" height="2" fill="#F99C0B" />
<rect x="108" y="88" width="8" height="18" fill="#FFD233" />
<rect x="118" y="88" width="3" height="5" fill="#F99C0B" />
<rect x="4" y="90" width="5" height="3" fill="#F99C0B" />
<rect x="14" y="90" width="8" height="3" fill="#F99C0B" />
<rect x="22" y="90" width="3" height="13" fill="#FFD233" />
<rect x="61" y="90" width="5" height="21" fill="#0E0D0E" />
<rect x="66" y="90" width="21" height="11" fill="#7C776F" />
<rect x="97" y="90" width="8" height="3" fill="#F99C0B" />
<rect x="105" y="90" width="3" height="13" fill="#FFD233" />
<rect x="116" y="90" width="2" height="13" fill="#FFD233" />
<rect x="4" y="93" width="10" height="16" fill="#FFD233" />
<rect x="14" y="93" width="6" height="3" fill="#F99C0B" />
<rect x="20" y="93" width="2" height="8" fill="#FFD233" />
<rect x="97" y="93" width="6" height="3" fill="#F99C0B" />
<rect x="103" y="93" width="2" height="8" fill="#FFD233" />
<rect x="118" y="93" width="3" height="8" fill="#FFD233" />
<rect x="14" y="96" width="3" height="10" fill="#FFD233" />
<rect x="17" y="96" width="3" height="15" fill="#F99C0B" />
<rect x="97" y="96" width="3" height="10" fill="#FFD233" />
<rect x="100" y="96" width="3" height="15" fill="#F99C0B" />
<rect x="20" y="101" width="2" height="5" fill="#F99C0B" />
<rect x="41" y="101" width="15" height="5" fill="#EBA724" />
<rect x="66" y="101" width="10" height="5" fill="#0E0D0E" />
<rect x="76" y="101" width="6" height="5" fill="#B3AAA1" />
<rect x="82" y="101" width="5" height="10" fill="#0E0D0E" />
<rect x="103" y="101" width="2" height="5" fill="#F99C0B" />
<rect x="118" y="101" width="3" height="2" fill="#F99C0B" />
<rect x="22" y="103" width="3" height="8" fill="#F99C0B" />
<rect x="105" y="103" width="3" height="8" fill="#F99C0B" />
<rect x="116" y="103" width="2" height="8" fill="#F99C0B" />
<rect x="118" y="103" width="3" height="3" fill="#FFD233" />
<rect x="14" y="106" width="3" height="5" fill="#F99C0B" />
<rect x="20" y="106" width="2" height="3" fill="#FFD233" />
<rect x="25" y="106" width="5" height="5" fill="#F99C0B" />
<rect x="41" y="106" width="20" height="5" fill="#0E0D0E" />
<rect x="66" y="106" width="5" height="5" fill="#FF0000" />
<rect x="71" y="106" width="11" height="5" fill="#0E0D0E" />
<rect x="87" y="106" width="5" height="5" fill="#FF0000" />
<rect x="92" y="106" width="5" height="3" fill="#FFD233" />
<rect x="97" y="106" width="3" height="5" fill="#F99C0B" />
<rect x="103" y="106" width="2" height="3" fill="#FFD233" />
<rect x="108" y="106" width="8" height="5" fill="#F99C0B" />
<rect x="118" y="106" width="3" height="5" fill="#F99C0B" />
<rect x="4" y="109" width="10" height="2" fill="#F99C0B" />
<rect x="20" y="109" width="2" height="2" fill="#F99C0B" />
<rect x="92" y="109" width="5" height="2" fill="#F99C0B" />
<rect x="103" y="109" width="2" height="2" fill="#F99C0B" />
<rect x="0" y="111" width="1" height="1" fill="#FF0901" opacity="0.996078" />
<rect x="4" y="111" width="1" height="1" fill="#F9920A" />
<rect x="5" y="111" width="4" height="3" fill="#F99C0B" />
<rect x="9" y="111" width="26" height="3" fill="#351424" />
<rect x="35" y="111" width="31" height="5" fill="#FF0000" />
<rect x="66" y="111" width="5" height="3" fill="#351424" />
<rect x="71" y="111" width="16" height="5" fill="#FF0000" />
<rect x="87" y="111" width="5" height="3" fill="#F99C0B" />
<rect x="92" y="111" width="28" height="3" fill="#351424" />
<rect x="120" y="111" width="1" height="1" fill="#421322" />
<rect x="124" y="111" width="1" height="1" fill="#FF0901" opacity="0.996078" />
<rect x="0" y="112" width="1" height="1" fill="#FE1F02" opacity="0.937255" />
<rect x="4" y="112" width="1" height="1" fill="#FB6707" />
<rect x="120" y="112" width="1" height="1" fill="#7A0D18" />
<rect x="124" y="112" width="1" height="1" fill="#FE1F02" opacity="0.937255" />
<rect x="0" y="113" width="1" height="1" fill="#FD3404" opacity="0.752941" />
<rect x="4" y="113" width="1" height="1" fill="#FC4205" />
<rect x="120" y="113" width="1" height="1" fill="#A9080F" />
<rect x="124" y="113" width="1" height="1" fill="#FD3404" opacity="0.752941" />
<rect x="0" y="114" width="1" height="1" fill="#A50910" opacity="0.341176" />
<rect x="4" y="114" width="1" height="1" fill="#FF0400" />
<rect x="5" y="114" width="1" height="1" fill="#FA8409" />
<rect x="6" y="114" width="1" height="2" fill="#F99C0B" />
<rect x="7" y="114" width="2" height="2" fill="#351424" />
<rect x="9" y="114" width="26" height="2" fill="#FFFC32" />
<rect x="66" y="114" width="5" height="2" fill="#FFFC32" />
<rect x="87" y="114" width="3" height="2" fill="#F99C0B" />
<rect x="90" y="114" width="2" height="2" fill="#351424" />
<rect x="92" y="114" width="27" height="2" fill="#FFFC32" />
<rect x="119" y="114" width="1" height="1" fill="#FFD52A" />
<rect x="120" y="114" width="1" height="1" fill="#FF0601" />
<rect x="124" y="114" width="1" height="1" fill="#A50910" opacity="0.341176" />
<rect x="1" y="115" width="1" height="1" fill="#FE1101" opacity="0.984314" />
<rect x="4" y="115" width="1" height="5" fill="#FF0000" />
<rect x="5" y="115" width="1" height="1" fill="#FC4305" />
<rect x="119" y="115" width="1" height="1" fill="#FF6C15" />
<rect x="120" y="115" width="1" height="5" fill="#FF0000" />
<rect x="123" y="115" width="1" height="1" fill="#E90204" opacity="0.984314" />
<rect x="1" y="116" width="1" height="1" fill="#B1080E" opacity="0.611765" />
<rect x="5" y="116" width="1" height="5" fill="#FF0000" />
<rect x="6" y="116" width="1" height="1" fill="#830C16" />
<rect x="7" y="116" width="13" height="1" fill="#FFFC32" />
<rect x="20" y="116" width="10" height="3" fill="#FFD233" />
<rect x="30" y="116" width="3" height="3" fill="#FFFC32" />
<rect x="33" y="116" width="2" height="5" fill="#FFD233" />
<rect x="35" y="116" width="8" height="3" fill="#FFFC32" />
<rect x="43" y="116" width="5" height="5" fill="#351424" />
<rect x="48" y="116" width="13" height="3" fill="#FFFC32" />
<rect x="61" y="116" width="10" height="3" fill="#FFD233" />
<rect x="71" y="116" width="3" height="3" fill="#FFFC32" />
<rect x="74" y="116" width="2" height="5" fill="#FFD233" />
<rect x="76" y="116" width="8" height="3" fill="#FFFC32" />
<rect x="84" y="116" width="6" height="5" fill="#351424" />
<rect x="90" y="116" width="13" height="3" fill="#FFFC32" />
<rect x="103" y="116" width="10" height="3" fill="#FFD233" />
<rect x="113" y="116" width="3" height="3" fill="#FFFC32" />
<rect x="116" y="116" width="2" height="1" fill="#FFD233" />
<rect x="118" y="116" width="1" height="1" fill="#FF9B1F" />
<rect x="119" y="116" width="1" height="5" fill="#FF0000" />
<rect x="123" y="116" width="1" height="1" fill="#FF6113" opacity="0.611765" />
<rect x="2" y="117" width="1" height="1" fill="#DF0306" opacity="0.964706" />
<rect x="6" y="117" width="1" height="1" fill="#FA0001" />
<rect x="7" y="117" width="1" height="1" fill="#FF9B1F" />
<rect x="8" y="117" width="12" height="1" fill="#FFFC32" />
<rect x="116" y="117" width="1" height="1" fill="#FFD233" />
<rect x="117" y="117" width="1" height="1" fill="#FF811F" />
<rect x="118" y="117" width="1" height="1" fill="#FF0601" />
<rect x="122" y="117" width="1" height="1" fill="#FF2808" opacity="0.964706" />
<rect x="2" y="118" width="1" height="1" fill="#A50910" opacity="0.341176" />
<rect x="6" y="118" width="1" height="4" fill="#FF0000" />
<rect x="7" y="118" width="1" height="1" fill="#FF0601" />
<rect x="8" y="118" width="1" height="1" fill="#FF9B1F" />
<rect x="9" y="118" width="11" height="1" fill="#FFFC32" />
<rect x="116" y="118" width="1" height="1" fill="#FF811F" />
<rect x="117" y="118" width="1" height="1" fill="#FF0501" />
<rect x="118" y="118" width="1" height="4" fill="#FF0000" />
<rect x="122" y="118" width="1" height="1" fill="#FF7116" opacity="0.341176" />
<rect x="3" y="119" width="1" height="1" fill="#B1080E" opacity="0.611765" />
<rect x="7" y="119" width="2" height="3" fill="#FF0000" />
<rect x="9" y="119" width="1" height="1" fill="#FF5A16" />
<rect x="10" y="119" width="1" height="1" fill="#FFB22B" />
<rect x="11" y="119" width="1" height="1" fill="#FFD233" />
<rect x="12" y="119" width="8" height="1" fill="#FFFC32" />
<rect x="20" y="119" width="2" height="2" fill="#FFD233" />
<rect x="22" y="119" width="3" height="2" fill="#FFFC32" />
<rect x="25" y="119" width="8" height="2" fill="#FFD233" />
<rect x="35" y="119" width="3" height="2" fill="#FFD233" />
<rect x="38" y="119" width="5" height="2" fill="#FFFC32" />
<rect x="48" y="119" width="3" height="2" fill="#FFFC32" />
<rect x="51" y="119" width="3" height="2" fill="#FFD233" />
<rect x="54" y="119" width="7" height="2" fill="#FFFC32" />
<rect x="61" y="119" width="2" height="2" fill="#FFD233" />
<rect x="63" y="119" width="3" height="2" fill="#FFFC32" />
<rect x="66" y="119" width="8" height="2" fill="#FFD233" />
<rect x="76" y="119" width="3" height="2" fill="#FFD233" />
<rect x="79" y="119" width="5" height="2" fill="#FFFC32" />
<rect x="90" y="119" width="2" height="2" fill="#FFFC32" />
<rect x="92" y="119" width="3" height="2" fill="#FFD233" />
<rect x="95" y="119" width="8" height="2" fill="#FFFC32" />
<rect x="103" y="119" width="2" height="2" fill="#FFD233" />
<rect x="105" y="119" width="3" height="2" fill="#FFFC32" />
<rect x="108" y="119" width="6" height="1" fill="#FFD233" />
<rect x="114" y="119" width="1" height="1" fill="#FFB22B" />
<rect x="115" y="119" width="1" height="1" fill="#FF5A16" />
<rect x="116" y="119" width="2" height="3" fill="#FF0000" />
<rect x="121" y="119" width="1" height="1" fill="#FF6113" opacity="0.611765" />
<rect x="4" y="120" width="1" height="1" fill="#B1080E" opacity="0.611765" />
<rect x="9" y="120" width="1" height="3" fill="#FF0000" />
<rect x="10" y="120" width="1" height="1" fill="#FF0501" />
<rect x="11" y="120" width="1" height="1" fill="#FF5916" />
<rect x="12" y="120" width="1" height="1" fill="#FFA621" />
<rect x="13" y="120" width="1" height="1" fill="#FFEB2F" />
<rect x="14" y="120" width="6" height="1" fill="#FFFC32" />
<rect x="108" y="120" width="3" height="1" fill="#FFD233" />
<rect x="111" y="120" width="1" height="1" fill="#FFC430" />
<rect x="112" y="120" width="1" height="1" fill="#FF8A22" />
<rect x="113" y="120" width="1" height="1" fill="#FF5916" />
<rect x="114" y="120" width="1" height="1" fill="#FF0501" />
<rect x="115" y="120" width="1" height="3" fill="#FF0000" />
<rect x="120" y="120" width="1" height="1" fill="#FF5114" opacity="0.611765" />
<rect x="5" y="121" width="1" height="1" fill="#B1080E" opacity="0.611765" />
<rect x="10" y="121" width="105" height="3" fill="#FF0000" />
<rect x="119" y="121" width="1" height="1" fill="#FF5114" opacity="0.611765" />
<rect x="6" y="122" width="1" height="1" fill="#A50910" opacity="0.341176" />
<rect x="7" y="122" width="1" height="1" fill="#FF2808" opacity="0.964706" />
<rect x="8" y="122" width="1" height="1" fill="#FF0000" />
<rect x="116" y="122" width="1" height="1" fill="#FF0000" />
<rect x="117" y="122" width="1" height="1" fill="#FF2108" opacity="0.964706" />
<rect x="118" y="122" width="1" height="1" fill="#FF5E17" opacity="0.341176" />
<rect x="8" y="123" width="1" height="1" fill="#FF6113" opacity="0.611765" />
<rect x="9" y="123" width="1" height="1" fill="#FF1706" opacity="0.984314" />
<rect x="115" y="123" width="1" height="1" fill="#FE1101" opacity="0.984314" />
<rect x="116" y="123" width="1" height="1" fill="#FF5114" opacity="0.611765" />
<rect x="10" y="124" width="1" height="1" fill="#FF5E17" opacity="0.341176" />
<rect x="11" y="124" width="1" height="1" fill="#FF4611" opacity="0.752941" />
<rect x="12" y="124" width="1" height="1" fill="#FF2A0A" opacity="0.937255" />
<rect x="13" y="124" width="1" height="1" fill="#FF0C03" opacity="0.996078" />
<rect x="14" y="124" width="97" height="1" fill="#FF0000" />
<rect x="111" y="124" width="1" height="1" fill="#FF0901" opacity="0.996078" />
<rect x="112" y="124" width="1" height="1" fill="#FE1F02" opacity="0.937255" />
<rect x="113" y="124" width="1" height="1" fill="#FD3404" opacity="0.752941" />
<rect x="114" y="124" width="1" height="1" fill="#FC4605" opacity="0.341176" />
</svg>